<svg width="58" height="58" viewBox="0 0 58 58" fill="none" xmlns="http://www.w3.org/2000/svg">
<rect width="58" height="58" rx="6" fill="#0089CF"/>
<path d="M21.9512 25.189L26.7943 27.9628L36.6033 22.3342L22.1763 14.06C21.958 13.9385 21.6851 14.006 21.5555 14.222C21.5146 14.2895 21.4941 14.3704 21.4941 14.4514V24.4061C21.4941 24.7301 21.6647 25.027 21.9512 25.189Z" fill="white"/>
<path d="M21.9507 32.9368C21.6642 33.0987 21.4937 33.3957 21.4937 33.7196V43.6743C21.4937 43.7553 21.5141 43.8363 21.555 43.9038C21.6778 44.1198 21.9575 44.1873 22.1758 44.0658L38.2672 34.84C38.4105 34.759 38.4991 34.6105 38.506 34.4485V23.4478L21.9507 32.9368Z" fill="white"/>
</svg>
